<svg width="24" height="24" viewBox="0 0 24 24" fill="none" xmlns="http://www.w3.org/2000/svg">
<path d="M11.4914 14.9983C11.3081 14.9986 11.1305 14.9405 10.9894 14.8341L6.28335 11.2645C6.12317 11.1433 6.02244 10.9692 6.00332 10.7804C5.9842 10.5917 6.04825 10.4037 6.18138 10.2579C6.31451 10.1121 6.50582 10.0204 6.71322 10.003C6.92062 9.98562 7.12713 10.0439 7.2873 10.1651L11.4914 13.3634L15.6954 10.2793C15.7757 10.22 15.868 10.1757 15.9671 10.149C16.0662 10.1223 16.1701 10.1137 16.2729 10.1236C16.3756 10.1336 16.4752 10.1619 16.5659 10.207C16.6566 10.2521 16.7366 10.3131 16.8014 10.3864C16.8732 10.4598 16.9276 10.5459 16.9612 10.6394C16.9947 10.7328 17.0067 10.8315 16.9964 10.9294C16.9861 11.0272 16.9537 11.1221 16.9013 11.208C16.8488 11.2939 16.7774 11.3691 16.6916 11.4287L11.9855 14.8769C11.8403 14.9666 11.6664 15.0093 11.4914 14.9983Z" fill="white"/>
</svg>
